<svg xmlns="http://www.w3.org/2000/svg" xmlns:xlink="http://www.w3.org/1999/xlink" width="1127" zoomAndPan="magnify" viewBox="0 0 845.25 158.249993" height="211" preserveAspectRatio="xMidYMid meet" version="1.0"><defs><g/></defs><path fill="#009688" d="M 344.308594 21.976562 L 790.636719 21.976562 C 792.421875 21.976562 794.136719 22.683594 795.398438 23.949219 C 796.660156 25.210938 797.371094 26.925781 797.371094 28.710938 L 797.371094 127.480469 C 797.371094 129.265625 796.660156 130.980469 795.398438 132.242188 C 794.136719 133.503906 792.421875 134.214844 790.636719 134.214844 L 344.308594 134.214844 C 340.589844 134.214844 337.574219 131.199219 337.574219 127.480469 L 337.574219 28.710938 C 337.574219 24.992188 340.589844 21.976562 344.308594 21.976562 Z M 344.308594 21.976562 " fill-opacity="1" fill-rule="nonzero"/><g fill="#ffffff" fill-opacity="1"><g transform="translate(349.038652, 106.087206)"><g><path d="M 54.28125 -44.25 C 54.28125 -43.414062 53.863281 -43 53.03125 -43 L 48.734375 -43 C 47.890625 -43 47.46875 -43.414062 47.46875 -44.25 L 47.46875 -48.46875 C 47.414062 -50.195312 46.789062 -51.65625 45.59375 -52.84375 C 44.394531 -54.039062 42.929688 -54.640625 41.203125 -54.640625 L 21.234375 -54.640625 C 19.492188 -54.640625 18.007812 -54.023438 16.78125 -52.796875 C 15.5625 -51.578125 14.953125 -50.101562 14.953125 -48.375 L 14.953125 -13.078125 C 14.953125 -11.347656 15.5625 -9.867188 16.78125 -8.640625 C 18.007812 -7.421875 19.492188 -6.8125 21.234375 -6.8125 L 41.203125 -6.8125 C 42.929688 -6.8125 44.394531 -7.390625 45.59375 -8.546875 C 46.789062 -9.710938 47.414062 -11.164062 47.46875 -12.90625 L 47.46875 -17.203125 C 47.46875 -17.492188 47.585938 -17.773438 47.828125 -18.046875 C 48.066406 -18.316406 48.367188 -18.453125 48.734375 -18.453125 L 53.03125 -18.453125 C 53.382812 -18.453125 53.679688 -18.316406 53.921875 -18.046875 C 54.160156 -17.773438 54.28125 -17.492188 54.28125 -17.203125 L 54.28125 -12.90625 C 54.28125 -11.113281 53.921875 -9.4375 53.203125 -7.875 C 52.492188 -6.320312 51.554688 -4.960938 50.390625 -3.796875 C 49.222656 -2.640625 47.847656 -1.71875 46.265625 -1.03125 C 44.679688 -0.34375 42.992188 0 41.203125 0 L 21.234375 0 C 19.441406 0 17.753906 -0.34375 16.171875 -1.03125 C 14.585938 -1.71875 13.210938 -2.640625 12.046875 -3.796875 C 10.878906 -4.960938 9.953125 -6.351562 9.265625 -7.96875 C 8.578125 -9.582031 8.234375 -11.285156 8.234375 -13.078125 L 8.234375 -48.375 C 8.234375 -50.164062 8.578125 -51.851562 9.265625 -53.4375 C 9.953125 -55.019531 10.878906 -56.40625 12.046875 -57.59375 C 13.210938 -58.789062 14.585938 -59.734375 16.171875 -60.421875 C 17.753906 -61.109375 19.441406 -61.453125 21.234375 -61.453125 L 41.203125 -61.453125 C 42.992188 -61.453125 44.679688 -61.109375 46.265625 -60.421875 C 47.847656 -59.734375 49.222656 -58.804688 50.390625 -57.640625 C 51.554688 -56.472656 52.492188 -55.097656 53.203125 -53.515625 C 53.921875 -51.941406 54.28125 -50.257812 54.28125 -48.46875 Z M 54.28125 -44.25 "/></g></g></g><g fill="#ffffff" fill-opacity="1"><g transform="translate(411.472693, 106.087206)"><g><path d="M 45.78125 -1.171875 L 34.125 -27.328125 L 14.953125 -27.328125 L 14.953125 -1.25 C 14.953125 -0.414062 14.535156 0 13.703125 0 L 9.5 0 C 8.65625 0 8.234375 -0.414062 8.234375 -1.25 L 8.234375 -60.203125 C 8.234375 -61.035156 8.65625 -61.453125 9.5 -61.453125 L 41.203125 -61.453125 C 42.992188 -61.453125 44.679688 -61.109375 46.265625 -60.421875 C 47.847656 -59.734375 49.234375 -58.789062 50.421875 -57.59375 C 51.617188 -56.40625 52.5625 -55.019531 53.25 -53.4375 C 53.9375 -51.851562 54.28125 -50.164062 54.28125 -48.375 L 54.28125 -40.40625 C 54.28125 -37.476562 53.398438 -34.863281 51.640625 -32.5625 C 49.878906 -30.257812 47.597656 -28.691406 44.796875 -27.859375 L 41.75 -26.96875 L 53.203125 -1.171875 C 53.390625 -0.867188 53.40625 -0.597656 53.25 -0.359375 C 53.101562 -0.117188 52.851562 0 52.5 0 L 47.5625 0 C 47.207031 0 46.847656 -0.117188 46.484375 -0.359375 C 46.128906 -0.597656 45.894531 -0.867188 45.78125 -1.171875 Z M 14.953125 -34.125 L 41.203125 -34.125 C 42.929688 -34.125 44.40625 -34.734375 45.625 -35.953125 C 46.851562 -37.179688 47.46875 -38.664062 47.46875 -40.40625 L 47.46875 -48.375 C 47.46875 -50.101562 46.851562 -51.578125 45.625 -52.796875 C 44.40625 -54.023438 42.929688 -54.640625 41.203125 -54.640625 L 14.953125 -54.640625 Z M 14.953125 -34.125 "/></g></g></g><g fill="#ffffff" fill-opacity="1"><g transform="translate(473.906734, 106.087206)"><g><path d="M 9.046875 -43.890625 C 8.804688 -44.191406 8.597656 -44.535156 8.421875 -44.921875 C 8.242188 -45.304688 8.15625 -45.679688 8.15625 -46.046875 L 8.15625 -60.203125 C 8.15625 -60.492188 8.285156 -60.773438 8.546875 -61.046875 C 8.816406 -61.316406 9.101562 -61.453125 9.40625 -61.453125 L 13.703125 -61.453125 C 14.066406 -61.453125 14.363281 -61.316406 14.59375 -61.046875 C 14.832031 -60.773438 14.953125 -60.492188 14.953125 -60.203125 L 14.953125 -48.734375 C 14.953125 -48.429688 15.039062 -48.070312 15.21875 -47.65625 C 15.40625 -47.238281 15.617188 -46.878906 15.859375 -46.578125 L 31.265625 -31.53125 L 46.578125 -46.578125 C 46.878906 -46.878906 47.101562 -47.238281 47.25 -47.65625 C 47.394531 -48.070312 47.46875 -48.429688 47.46875 -48.734375 L 47.46875 -60.203125 C 47.46875 -60.492188 47.585938 -60.773438 47.828125 -61.046875 C 48.066406 -61.316406 48.367188 -61.453125 48.734375 -61.453125 L 53.03125 -61.453125 C 53.382812 -61.453125 53.679688 -61.316406 53.921875 -61.046875 C 54.160156 -60.773438 54.28125 -60.492188 54.28125 -60.203125 L 54.28125 -46.046875 C 54.28125 -45.679688 54.191406 -45.304688 54.015625 -44.921875 C 53.835938 -44.535156 53.628906 -44.191406 53.390625 -43.890625 L 34.671875 -25.265625 L 34.671875 -1.25 C 34.671875 -0.894531 34.535156 -0.597656 34.265625 -0.359375 C 33.992188 -0.117188 33.707031 0 33.40625 0 L 29.109375 0 C 28.273438 0 27.859375 -0.414062 27.859375 -1.25 L 27.859375 -25.265625 Z M 9.046875 -43.890625 "/></g></g></g><g fill="#ffffff" fill-opacity="1"><g transform="translate(536.251203, 106.087206)"><g><path d="M 8.15625 -1.25 L 8.15625 -60.203125 C 8.15625 -60.554688 8.285156 -60.851562 8.546875 -61.09375 C 8.816406 -61.332031 9.101562 -61.453125 9.40625 -61.453125 L 41.203125 -61.453125 C 42.992188 -61.453125 44.679688 -61.109375 46.265625 -60.421875 C 47.847656 -59.734375 49.234375 -58.789062 50.421875 -57.59375 C 51.617188 -56.40625 52.5625 -55.019531 53.25 -53.4375 C 53.9375 -51.851562 54.28125 -50.164062 54.28125 -48.375 L 54.28125 -40.40625 C 54.28125 -38.613281 53.9375 -36.910156 53.25 -35.296875 C 52.5625 -33.679688 51.617188 -32.289062 50.421875 -31.125 C 49.234375 -29.957031 47.847656 -29.03125 46.265625 -28.34375 C 44.679688 -27.664062 42.992188 -27.328125 41.203125 -27.328125 L 14.953125 -27.328125 L 14.953125 -1.25 C 14.953125 -0.414062 14.535156 0 13.703125 0 L 9.40625 0 C 9.101562 0 8.816406 -0.117188 8.546875 -0.359375 C 8.285156 -0.597656 8.15625 -0.894531 8.15625 -1.25 Z M 14.953125 -34.125 L 41.203125 -34.125 C 42.929688 -34.125 44.40625 -34.734375 45.625 -35.953125 C 46.851562 -37.179688 47.46875 -38.664062 47.46875 -40.40625 L 47.46875 -48.375 C 47.46875 -50.101562 46.851562 -51.578125 45.625 -52.796875 C 44.40625 -54.023438 42.929688 -54.640625 41.203125 -54.640625 L 14.953125 -54.640625 Z M 14.953125 -34.125 "/></g></g></g><g fill="#ffffff" fill-opacity="1"><g transform="translate(598.685244, 106.087206)"><g><path d="M 27.859375 -1.25 L 27.859375 -54.640625 L 9.5 -54.640625 C 8.65625 -54.640625 8.234375 -55.054688 8.234375 -55.890625 L 8.234375 -60.203125 C 8.234375 -61.035156 8.65625 -61.453125 9.5 -61.453125 L 53.03125 -61.453125 C 53.863281 -61.453125 54.28125 -61.035156 54.28125 -60.203125 L 54.28125 -55.890625 C 54.28125 -55.054688 53.863281 -54.640625 53.03125 -54.640625 L 34.671875 -54.640625 L 34.671875 -1.25 C 34.671875 -0.894531 34.535156 -0.597656 34.265625 -0.359375 C 33.992188 -0.117188 33.707031 0 33.40625 0 L 29.109375 0 C 28.273438 0 27.859375 -0.414062 27.859375 -1.25 Z M 27.859375 -1.25 "/></g></g></g><g fill="#ffffff" fill-opacity="1"><g transform="translate(661.119286, 106.087206)"><g><path d="M 9.578125 -1.25 L 9.578125 -60.203125 C 9.578125 -61.035156 10 -61.453125 10.84375 -61.453125 L 52.578125 -61.453125 C 53.421875 -61.453125 53.84375 -61.035156 53.84375 -60.203125 L 53.84375 -55.890625 C 53.84375 -55.054688 53.421875 -54.640625 52.578125 -54.640625 L 16.296875 -54.640625 L 16.296875 -34.125 L 47.75 -34.125 C 48.039062 -34.125 48.320312 -33.988281 48.59375 -33.71875 C 48.863281 -33.457031 49 -33.175781 49 -32.875 L 49 -28.578125 C 49 -28.210938 48.863281 -27.910156 48.59375 -27.671875 C 48.320312 -27.441406 48.039062 -27.328125 47.75 -27.328125 L 16.296875 -27.328125 L 16.296875 -6.8125 L 52.578125 -6.8125 C 52.941406 -6.8125 53.242188 -6.675781 53.484375 -6.40625 C 53.722656 -6.132812 53.84375 -5.847656 53.84375 -5.546875 L 53.84375 -1.25 C 53.84375 -0.414062 53.421875 0 52.578125 0 L 10.84375 0 C 10 0 9.578125 -0.414062 9.578125 -1.25 Z M 9.578125 -1.25 "/></g></g></g><g fill="#ffffff" fill-opacity="1"><g transform="translate(723.463755, 106.087206)"><g><path d="M 45.78125 -1.171875 L 34.125 -27.328125 L 14.953125 -27.328125 L 14.953125 -1.25 C 14.953125 -0.414062 14.535156 0 13.703125 0 L 9.5 0 C 8.65625 0 8.234375 -0.414062 8.234375 -1.25 L 8.234375 -60.203125 C 8.234375 -61.035156 8.65625 -61.453125 9.5 -61.453125 L 41.203125 -61.453125 C 42.992188 -61.453125 44.679688 -61.109375 46.265625 -60.421875 C 47.847656 -59.734375 49.234375 -58.789062 50.421875 -57.59375 C 51.617188 -56.40625 52.5625 -55.019531 53.25 -53.4375 C 53.9375 -51.851562 54.28125 -50.164062 54.28125 -48.375 L 54.28125 -40.40625 C 54.28125 -37.476562 53.398438 -34.863281 51.640625 -32.5625 C 49.878906 -30.257812 47.597656 -28.691406 44.796875 -27.859375 L 41.75 -26.96875 L 53.203125 -1.171875 C 53.390625 -0.867188 53.40625 -0.597656 53.25 -0.359375 C 53.101562 -0.117188 52.851562 0 52.5 0 L 47.5625 0 C 47.207031 0 46.847656 -0.117188 46.484375 -0.359375 C 46.128906 -0.597656 45.894531 -0.867188 45.78125 -1.171875 Z M 14.953125 -34.125 L 41.203125 -34.125 C 42.929688 -34.125 44.40625 -34.734375 45.625 -35.953125 C 46.851562 -37.179688 47.46875 -38.664062 47.46875 -40.40625 L 47.46875 -48.375 C 47.46875 -50.101562 46.851562 -51.578125 45.625 -52.796875 C 44.40625 -54.023438 42.929688 -54.640625 41.203125 -54.640625 L 14.953125 -54.640625 Z M 14.953125 -34.125 "/></g></g></g><g fill="#000000" fill-opacity="1"><g transform="translate(20.610299, 106.087206)"><g><path d="M 27.859375 -1.25 L 27.859375 -54.640625 L 9.5 -54.640625 C 8.65625 -54.640625 8.234375 -55.054688 8.234375 -55.890625 L 8.234375 -60.203125 C 8.234375 -61.035156 8.65625 -61.453125 9.5 -61.453125 L 53.03125 -61.453125 C 53.863281 -61.453125 54.28125 -61.035156 54.28125 -60.203125 L 54.28125 -55.890625 C 54.28125 -55.054688 53.863281 -54.640625 53.03125 -54.640625 L 34.671875 -54.640625 L 34.671875 -1.25 C 34.671875 -0.894531 34.535156 -0.597656 34.265625 -0.359375 C 33.992188 -0.117188 33.707031 0 33.40625 0 L 29.109375 0 C 28.273438 0 27.859375 -0.414062 27.859375 -1.25 Z M 27.859375 -1.25 "/></g></g></g><g fill="#000000" fill-opacity="1"><g transform="translate(83.04434, 106.087206)"><g><path d="M 45.78125 -1.171875 L 34.125 -27.328125 L 14.953125 -27.328125 L 14.953125 -1.25 C 14.953125 -0.414062 14.535156 0 13.703125 0 L 9.5 0 C 8.65625 0 8.234375 -0.414062 8.234375 -1.25 L 8.234375 -60.203125 C 8.234375 -61.035156 8.65625 -61.453125 9.5 -61.453125 L 41.203125 -61.453125 C 42.992188 -61.453125 44.679688 -61.109375 46.265625 -60.421875 C 47.847656 -59.734375 49.234375 -58.789062 50.421875 -57.59375 C 51.617188 -56.40625 52.5625 -55.019531 53.25 -53.4375 C 53.9375 -51.851562 54.28125 -50.164062 54.28125 -48.375 L 54.28125 -40.40625 C 54.28125 -37.476562 53.398438 -34.863281 51.640625 -32.5625 C 49.878906 -30.257812 47.597656 -28.691406 44.796875 -27.859375 L 41.75 -26.96875 L 53.203125 -1.171875 C 53.390625 -0.867188 53.40625 -0.597656 53.25 -0.359375 C 53.101562 -0.117188 52.851562 0 52.5 0 L 47.5625 0 C 47.207031 0 46.847656 -0.117188 46.484375 -0.359375 C 46.128906 -0.597656 45.894531 -0.867188 45.78125 -1.171875 Z M 14.953125 -34.125 L 41.203125 -34.125 C 42.929688 -34.125 44.40625 -34.734375 45.625 -35.953125 C 46.851562 -37.179688 47.46875 -38.664062 47.46875 -40.40625 L 47.46875 -48.375 C 47.46875 -50.101562 46.851562 -51.578125 45.625 -52.796875 C 44.40625 -54.023438 42.929688 -54.640625 41.203125 -54.640625 L 14.953125 -54.640625 Z M 14.953125 -34.125 "/></g></g></g><g fill="#000000" fill-opacity="1"><g transform="translate(145.478381, 106.087206)"><g><path d="M 39.59375 -61.453125 C 39.945312 -61.453125 40.285156 -61.332031 40.609375 -61.09375 C 40.941406 -60.851562 41.171875 -60.582031 41.296875 -60.28125 L 53.75 -29.109375 C 53.863281 -28.816406 53.960938 -28.429688 54.046875 -27.953125 C 54.140625 -27.472656 54.1875 -27.050781 54.1875 -26.6875 L 54.1875 -1.25 C 54.1875 -0.414062 53.769531 0 52.9375 0 L 48.734375 0 C 47.890625 0 47.46875 -0.414062 47.46875 -1.25 L 47.46875 -17.828125 L 14.953125 -17.828125 L 14.953125 -1.25 C 14.953125 -0.414062 14.535156 0 13.703125 0 L 9.40625 0 C 8.570312 0 8.15625 -0.414062 8.15625 -1.25 L 8.15625 -26.6875 C 8.15625 -27.050781 8.195312 -27.472656 8.28125 -27.953125 C 8.375 -28.429688 8.476562 -28.816406 8.59375 -29.109375 L 21.046875 -60.28125 C 21.171875 -60.582031 21.410156 -60.851562 21.765625 -61.09375 C 22.128906 -61.332031 22.457031 -61.453125 22.75 -61.453125 Z M 47.46875 -24.546875 L 47.46875 -26.6875 L 36.28125 -54.640625 L 26.15625 -54.640625 L 14.953125 -26.6875 L 14.953125 -24.546875 Z M 47.46875 -24.546875 "/></g></g></g><g fill="#000000" fill-opacity="1"><g transform="translate(207.912422, 106.087206)"><g><path d="M 47.46875 -1.25 L 47.46875 -26.96875 L 14.953125 -53.84375 L 14.953125 -1.25 C 14.953125 -0.414062 14.535156 0 13.703125 0 L 9.40625 0 C 9.101562 0 8.816406 -0.117188 8.546875 -0.359375 C 8.285156 -0.597656 8.15625 -0.894531 8.15625 -1.25 L 8.15625 -60.203125 C 8.15625 -60.554688 8.285156 -60.851562 8.546875 -61.09375 C 8.816406 -61.332031 9.101562 -61.453125 9.40625 -61.453125 L 15.40625 -61.453125 C 16.238281 -61.453125 16.984375 -61.179688 17.640625 -60.640625 L 47.46875 -36.015625 L 47.46875 -60.203125 C 47.46875 -61.035156 47.890625 -61.453125 48.734375 -61.453125 L 53.03125 -61.453125 C 53.863281 -61.453125 54.28125 -61.035156 54.28125 -60.203125 L 54.28125 -1.25 C 54.28125 -0.414062 53.863281 0 53.03125 0 L 48.734375 0 C 47.890625 0 47.46875 -0.414062 47.46875 -1.25 Z M 47.46875 -1.25 "/></g></g></g><g fill="#000000" fill-opacity="1"><g transform="translate(270.346463, 106.087206)"><g><path d="M 8.15625 -13.078125 L 8.15625 -17.203125 C 8.15625 -17.492188 8.285156 -17.773438 8.546875 -18.046875 C 8.816406 -18.316406 9.101562 -18.453125 9.40625 -18.453125 L 13.703125 -18.453125 C 14.066406 -18.453125 14.363281 -18.316406 14.59375 -18.046875 C 14.832031 -17.773438 14.953125 -17.492188 14.953125 -17.203125 L 14.953125 -13.078125 C 14.953125 -11.347656 15.5625 -9.867188 16.78125 -8.640625 C 18.007812 -7.421875 19.492188 -6.8125 21.234375 -6.8125 L 41.203125 -6.8125 C 42.929688 -6.8125 44.40625 -7.421875 45.625 -8.640625 C 46.851562 -9.867188 47.46875 -11.347656 47.46875 -13.078125 L 47.46875 -21.046875 C 47.46875 -22.785156 46.851562 -24.265625 45.625 -25.484375 C 44.40625 -26.710938 42.929688 -27.328125 41.203125 -27.328125 L 21.234375 -27.328125 C 19.441406 -27.328125 17.753906 -27.664062 16.171875 -28.34375 C 14.585938 -29.03125 13.195312 -29.957031 12 -31.125 C 10.8125 -32.289062 9.875 -33.679688 9.1875 -35.296875 C 8.5 -36.910156 8.15625 -38.613281 8.15625 -40.40625 L 8.15625 -48.375 C 8.15625 -50.164062 8.5 -51.851562 9.1875 -53.4375 C 9.875 -55.019531 10.8125 -56.40625 12 -57.59375 C 13.195312 -58.789062 14.585938 -59.734375 16.171875 -60.421875 C 17.753906 -61.109375 19.441406 -61.453125 21.234375 -61.453125 L 41.203125 -61.453125 C 42.992188 -61.453125 44.679688 -61.109375 46.265625 -60.421875 C 47.847656 -59.734375 49.234375 -58.789062 50.421875 -57.59375 C 51.617188 -56.40625 52.5625 -55.019531 53.25 -53.4375 C 53.9375 -51.851562 54.28125 -50.164062 54.28125 -48.375 L 54.28125 -44.25 C 54.28125 -43.414062 53.863281 -43 53.03125 -43 L 48.734375 -43 C 47.890625 -43 47.46875 -43.414062 47.46875 -44.25 L 47.46875 -48.375 C 47.46875 -50.101562 46.851562 -51.578125 45.625 -52.796875 C 44.40625 -54.023438 42.929688 -54.640625 41.203125 -54.640625 L 21.234375 -54.640625 C 19.492188 -54.640625 18.007812 -54.023438 16.78125 -52.796875 C 15.5625 -51.578125 14.953125 -50.101562 14.953125 -48.375 L 14.953125 -40.40625 C 14.953125 -38.664062 15.5625 -37.179688 16.78125 -35.953125 C 18.007812 -34.734375 19.492188 -34.125 21.234375 -34.125 L 41.203125 -34.125 C 42.992188 -34.125 44.679688 -33.78125 46.265625 -33.09375 C 47.847656 -32.40625 49.234375 -31.460938 50.421875 -30.265625 C 51.617188 -29.078125 52.5625 -27.691406 53.25 -26.109375 C 53.9375 -24.523438 54.28125 -22.835938 54.28125 -21.046875 L 54.28125 -13.078125 C 54.28125 -11.285156 53.9375 -9.582031 53.25 -7.96875 C 52.5625 -6.351562 51.617188 -4.960938 50.421875 -3.796875 C 49.234375 -2.640625 47.847656 -1.71875 46.265625 -1.03125 C 44.679688 -0.34375 42.992188 0 41.203125 0 L 21.234375 0 C 19.441406 0 17.753906 -0.34375 16.171875 -1.03125 C 14.585938 -1.71875 13.195312 -2.640625 12 -3.796875 C 10.8125 -4.960938 9.875 -6.351562 9.1875 -7.96875 C 8.5 -9.582031 8.15625 -11.285156 8.15625 -13.078125 Z M 8.15625 -13.078125 "/></g></g></g></svg>